<?xml version="1.0" standalone="no"?>
<!DOCTYPE svg PUBLIC "-//W3C//DTD SVG 20010904//EN"
 "http://www.w3.org/TR/2001/REC-SVG-20010904/DTD/svg10.dtd">
<svg version="1.0" xmlns="http://www.w3.org/2000/svg"
 width="1024.000000pt" height="1024.000000pt" viewBox="0 0 1024.000000 1024.000000"
 preserveAspectRatio="xMidYMid meet">
<metadata>
Created by potrace 1.11, written by Peter Selinger 2001-2013
</metadata>
<g transform="translate(0.000000,1024.000000) scale(0.100000,-0.100000)"
fill="#000000" stroke="none">
<path d="M2561 8015 c0 -990 4 -1822 9 -1850 4 -27 11 -79 15 -115 10 -95 51
-280 86 -395 162 -524 483 -980 916 -1304 187 -139 327 -217 588 -331 92 -40
369 -120 470 -135 21 -3 42 -9 45 -14 3 -5 5 -686 4 -1513 l0 -1503 -835 -2
c-459 0 -843 -1 -854 -2 -19 -1 -20 -7 -19 -189 1 -103 2 -198 3 -212 l1 -25
2125 1 c1168 0 2128 3 2131 7 4 4 8 97 8 208 1 181 -1 202 -16 208 -9 3 -393
6 -852 5 -754 0 -836 1 -837 15 0 9 -1 690 -2 1514 l-2 1497 20 0 c56 0 445
109 470 131 5 5 15 9 22 9 15 0 131 52 228 101 281 144 568 368 765 599 25 29
50 57 56 64 41 44 184 253 236 346 36 64 113 217 137 272 23 51 118 334 125
370 2 13 13 70 25 128 26 133 30 158 39 250 4 41 7 883 7 1870 l0 1794 -2558
1 -2558 0 2 -1800z"/>
</g>
</svg>
